<svg width="106" height="106" viewBox="0 0 106 106" fill="none" xmlns="http://www.w3.org/2000/svg">
<path d="M53 9.9375C29.2179 9.9375 9.9375 29.2179 9.9375 53C9.9375 73.3338 24.0355 90.365 42.988 94.8799C42.0075 94.6464 41.0353 94.3847 40.0813 94.0866V84.2203C40.0813 84.2203 38.4664 84.7586 36.3133 84.7586C30.2895 84.7586 27.7869 79.3841 27.1625 76.6844C26.7832 75.0397 25.7928 73.4812 24.7295 72.5288C23.4591 71.396 22.8645 71.3927 22.8563 71.0051C22.8397 70.1919 23.9461 70.225 24.4711 70.225C27.1625 70.225 29.203 73.0887 30.1504 74.5693C32.4973 78.2247 35.0164 78.8375 36.3133 78.8375C37.9281 78.8375 39.3227 78.5957 40.2833 78.1319C40.7272 75.0049 42.1184 72.2191 44.3875 70.225C34.2893 68.206 27.1625 62.4141 27.1625 53C27.1625 48.1505 29.1086 43.6935 32.3515 40.0945C32.0203 39.1554 31.4688 37.2557 31.4688 34.1602C31.4688 32.1147 31.6112 29.6038 32.5453 27.1625C32.5453 27.1625 38.6867 27.2056 44.4786 32.6911C47.1518 31.9126 50.0121 31.4688 53 31.4688C55.9879 31.4688 58.8482 31.9126 61.5214 32.6911C67.3133 27.2056 73.4547 27.1625 73.4547 27.1625C74.3938 29.6038 74.5312 32.1147 74.5312 34.1602C74.5312 37.4975 74.0874 39.4436 73.8158 40.2833C76.9593 43.8492 78.8375 48.2366 78.8375 53C78.8375 62.4141 71.7107 68.206 61.6125 70.225C64.3089 72.5934 65.9187 76.0434 65.9187 79.9141V94.0866C64.9647 94.3864 63.9942 94.6464 63.012 94.8799C81.9645 90.365 96.0625 73.3338 96.0625 53C96.0625 29.2179 76.7821 9.9375 53 9.9375ZM56.0028 95.9466C55.0107 96.0161 54.0103 96.0625 53 96.0625C54.0103 96.0625 55.009 96.0145 56.0028 95.9466ZM53 96.0625C51.9897 96.0625 50.9893 96.0161 49.9972 95.9466C50.991 96.0145 51.9897 96.0625 53 96.0625ZM49.3364 95.8969C47.3207 95.7263 45.3432 95.4182 43.4169 94.9793C45.3448 95.4166 47.3207 95.7263 49.3364 95.8969Z" fill="black"/>
</svg>
