<svg width="202" height="198" viewBox="0 0 202 198" fill="none" xmlns="http://www.w3.org/2000/svg">
<g clip-path="url(#clip0_17_304)">
<path d="M81.3469 107.074C75.1178 105.322 69.1405 103.572 62.7388 102.444C69.6827 79.457 77.6143 56.8026 86.9559 34.7115C96.2533 36.366 104.791 39.8522 113.057 44.439C101.622 64.8603 92.5124 86.487 81.408 107.092L81.3469 107.074Z" stroke="black" stroke-width="3.86817" stroke-miterlimit="1.5" stroke-linecap="round" stroke-linejoin="round"/>
<path d="M69.3497 120.093C59.5617 111.96 45.8006 122.968 52.4408 133.706C58.3139 143.202 74.5153 137.892 72.8534 127.31" stroke="black" stroke-width="3.86817" stroke-miterlimit="1.5" stroke-linecap="round" stroke-linejoin="round"/>
<path d="M154.041 82.994C142.985 98.6945 132.404 114.862 120.423 129.916L103.492 118.261C111.078 102.708 120.116 84.0519 129.67 67.6843C138.248 71.7936 146.831 76.7927 154.04 82.9954L154.041 82.994Z" stroke="black" stroke-width="3.86817" stroke-miterlimit="1.5" stroke-linecap="round" stroke-linejoin="round"/>
<path d="M106.199 139.934C98.1234 132.934 85.3692 142.883 91.1222 151.985C97.1885 161.583 111.964 153.75 109.05 143.93" stroke="black" stroke-width="3.86817" stroke-miterlimit="1.5" stroke-linecap="round" stroke-linejoin="round"/>
</g>
<defs>
<clipPath id="clip0_17_304">
<rect width="154" height="145" fill="white" transform="translate(63.5638) rotate(26)"/>
</clipPath>
</defs>
</svg>
