<svg width="200" height="196" viewBox="0 0 200 196" fill="none" xmlns="http://www.w3.org/2000/svg">
<path d="M108.76 144.326C79.6772 148.683 75.8317 137.084 72.6078 119.081C68.5307 96.316 83.6747 56.4209 110.556 54.0046C127.65 52.4679 132.189 71.1786 142.453 81.4875C157.086 96.1821 167.541 102.837 185.016 113.675C197.373 121.339 190.171 144.056 177.02 150.137C169.874 153.44 161.167 149.61 154.046 148.294C139.101 145.532 124.03 142.039 108.76 144.326Z" stroke="black" stroke-width="1.93409" stroke-miterlimit="1.5" stroke-linecap="round" stroke-linejoin="round"/>
<path d="M78.3364 112.59C79.2338 93.3379 87.947 64.8211 110.6 60.9941C123.356 59.7025 127.596 77.8528 128.157 87.2113C129.323 106.68 117.373 134.998 94.7711 137.51C81.3649 139 77.8804 122.368 78.3364 112.59Z" stroke="black" stroke-width="1.93409" stroke-miterlimit="1.5" stroke-linecap="round" stroke-linejoin="round"/>
<path d="M103.717 90.0595C108.509 92.196 105.966 100.502 103.999 105.515C103.138 107.709 99.9892 111.985 97.9836 111.134C91.7127 108.477 98.2273 88.3801 103.717 90.0595Z" stroke="black" stroke-width="1.93409" stroke-miterlimit="1.5" stroke-linecap="round" stroke-linejoin="round"/>
<path d="M147.819 147.124C157.75 141.884 164.844 127.608 167.772 117.63C169.106 113.087 169.854 108.044 168.807 103.365" stroke="black" stroke-width="1.93409" stroke-miterlimit="1.5" stroke-linecap="round" stroke-linejoin="round"/>
<path d="M182.811 129C182.18 132.367 180.89 135.688 178.644 138.338" stroke="black" stroke-width="1.93409" stroke-miterlimit="1.5" stroke-linecap="round" stroke-linejoin="round"/>
<path d="M175.516 124.938C174.657 128.534 173.012 131.791 170.447 134.51" stroke="black" stroke-width="1.93409" stroke-miterlimit="1.5" stroke-linecap="round" stroke-linejoin="round"/>
<path d="M140.423 145.771C143.471 146.227 147.125 146.97 150.582 147.631C149.156 150.396 147.191 153.82 145.034 156.114C144.109 157.098 143.126 158.122 141.762 158.483C141.22 158.628 140.625 158.638 140.068 158.591C138.414 158.455 134.262 157.971 134.102 155.75C133.999 154.308 135.151 152.846 135.98 151.76C137.476 149.799 138.887 147.773 140.274 145.735" stroke="black" stroke-width="1.93409" stroke-miterlimit="1.5" stroke-linecap="round" stroke-linejoin="round"/>
<path d="M150.579 147.635C149.153 150.399 147.189 153.822 145.032 156.114C144.108 157.098 143.125 158.121 141.761 158.484C141.218 158.627 140.624 158.638 140.067 158.591C138.869 158.493 136.363 158.212 135.009 157.222C134.336 157.914 133.592 158.638 132.821 159.388C129.343 162.77 125.329 166.673 124.923 170.554C124.623 173.418 127.277 175.843 129.725 176.95C135.029 179.349 140.424 178.742 145.334 175.743C153.98 170.464 158.81 160.37 162.418 151.466L162.455 151.378C162.566 151.104 162.743 150.672 162.825 150.384C159.203 149.36 154.604 148.408 150.579 147.635Z" stroke="black" stroke-width="1.93409" stroke-miterlimit="1.5" stroke-linecap="round" stroke-linejoin="round"/>
<path d="M68.6824 139.562C60.5739 141.771 52.3948 143.772 44.3635 146.263C46.8307 141.858 47.926 135.962 49.4547 131.218C39.6519 130.157 29.636 129.193 19.9338 127.55C26.0181 122.066 31.5154 114.749 36.4626 108.367C27.1238 105.824 17.9402 102.645 8.8009 99.5002C18.1123 93.257 27.394 86.6765 37.1228 81.0977C30.7128 72.5312 24.7435 63.6164 17.9877 55.3116C29.2758 55.2146 40.5679 54.544 51.856 54.5211C48.6835 45.3762 44.5911 36.4488 41.1027 27.4166C53.6396 31.2427 65.7061 36.3377 78.3822 39.7942C78.5953 32.3949 78.6026 24.9956 79.2395 17.616C85.6157 23.7441 91.9091 29.9101 98.6609 35.6457C100.401 31.5438 102.174 27.4749 104.1 23.4517C106.508 29.7517 108.287 36.2581 110.027 42.7598" stroke="black" stroke-width="1.93409" stroke-miterlimit="1.5" stroke-linecap="round" stroke-linejoin="round"/>
<path d="M103.819 90.1069C108.472 92.3151 105.951 100.539 103.999 105.516C103.195 107.563 100.398 111.424 98.3985 111.239L98.3784 111.289C102.562 113.418 105.912 115.458 109.124 117.414C112.01 119.172 114.785 120.862 117.956 122.488C120.963 118.439 124.141 111.33 124.803 109.129C124.941 108.668 125.076 108.222 125.209 107.784C126.261 104.321 127.135 101.443 127.807 96.6315C124.748 95.7512 121.496 94.9292 118.21 94.0994C113.311 92.8613 108.338 91.6051 103.819 90.1069Z" stroke="black" stroke-width="1.93409" stroke-miterlimit="1.5" stroke-linecap="round" stroke-linejoin="round"/>
</svg>
