<svg width="79" height="324" viewBox="0 0 79 324" fill="none" xmlns="http://www.w3.org/2000/svg">
<path d="M-47.4168 1C-34.7806 5.89468 3.67227 20.5088 9.73764 27.2215C17.3193 35.6124 50.5622 58.1629 64.5592 91.202C78.5562 124.241 86.7212 147.316 62.8096 211.821C43.6804 263.425 -19.034 290.311 -48 297.303M-39.2519 16.7329C-30.1149 18.8306 -8.57511 26.1726 4.48876 38.759C20.8186 54.4919 45.3134 70.2248 48.2294 84.3844C51.1454 98.544 57.5607 124.765 61.06 128.961C64.5592 133.156 75.6402 170.391 72.1409 201.857C68.6417 233.322 34.8156 262.166 23.7346 271.081C14.8699 278.214 -26.6157 299.925 -46.8336 309.889M-39.2519 28.7948C-34.975 29.494 -22.8054 33.4098 -8.34183 43.4788C9.73764 56.0651 6.82159 49.772 14.9865 56.5896C23.1514 63.4072 36.5652 78.0912 42.3973 91.202C48.2294 104.313 76.2234 138.925 68.6417 183.502C61.06 228.078 61.06 248.531 37.1484 267.935C18.0192 283.458 -26.8101 311.113 -46.8336 323" stroke="black" stroke-width="2"/>
</svg>
