<svg width="181" height="169" viewBox="0 0 181 169" fill="none" xmlns="http://www.w3.org/2000/svg">
<path d="M171.063 117.418C168.901 86.7528 166.122 64.229 163.215 31.9871C153.87 41.7069 139.822 45.6971 129.101 46.44C106.981 47.9712 92.631 37.5718 70.7843 35.979C48.6271 34.3627 29.6293 41.986 10.1367 50.827C13.2263 79.1349 16.1452 108.07 16.6246 136.539C30.3377 130.273 44.4332 124.761 59.9065 124.449C74.4814 124.155 88.3556 129.925 102.746 131.264C124.583 133.297 152.739 128.566 171.063 117.418Z" stroke="black" stroke-width="3.86817" stroke-miterlimit="1.5" stroke-linecap="round" stroke-linejoin="round"/>
<path d="M96.7098 68.228C91.5766 67.7478 85.9233 67.7043 81.6323 70.7413C78.1507 73.2057 76.3846 77.6942 80.3262 80.6895C86.0358 85.0257 95.3804 82.266 100.564 87.6206C104.141 91.3154 101.282 96.3547 97.3522 98.5292C94.3053 100.213 90.614 100.396 87.1828 99.9353C83.5265 99.4461 79.8216 99.0619 76.1808 98.473" stroke="black" stroke-width="3.86817" stroke-miterlimit="1.5" stroke-linecap="round" stroke-linejoin="round"/>
<path d="M89.5588 68.2825C89.6132 66.2892 89.751 64.3087 89.6792 62.3118" stroke="black" stroke-width="3.86817" stroke-miterlimit="1.5" stroke-linecap="round" stroke-linejoin="round"/>
<path d="M88.8834 100.013C88.9494 101.9 89.0154 103.783 89.126 105.667" stroke="black" stroke-width="3.86817" stroke-miterlimit="1.5" stroke-linecap="round" stroke-linejoin="round"/>
<path d="M61.0491 106.198C55.0756 105.491 48.6731 105.91 43.0528 108.026C40.8093 104.486 36.4505 102.59 32.1168 102.822C31.131 91.9734 30.3896 81.0485 29.5706 70.1925C34.5233 67.4708 37.3257 62.9841 37.7003 57.7002C48.2811 51.9197 59.3141 49.8304 71.3175 52.1788" stroke="black" stroke-width="3.86817" stroke-miterlimit="1.5" stroke-linecap="round" stroke-linejoin="round"/>
<path d="M112.571 62.0979C120.641 63.051 128.903 63.2341 136.995 62.4313C139.759 64.8776 143.487 66.7984 147.341 67.0792C147.902 76.9767 150.117 86.7708 151.046 96.6538C145.628 98.7993 139.926 102.512 139.553 108.516C131.025 110.371 122.154 110.365 113.629 108.499" stroke="black" stroke-width="3.86817" stroke-miterlimit="1.5" stroke-linecap="round" stroke-linejoin="round"/>
</svg>
