<svg width="103" height="109" viewBox="0 0 103 109" fill="none" xmlns="http://www.w3.org/2000/svg">
<path d="M15.8896 48.8061C16.4992 38.3227 29.1533 12.6985 57.8387 13.5166C64.8549 13.7164 65.2966 26.6074 67.8831 33.4702C80.9204 32.5071 87.3998 41.8102 86.7317 51.7899C85.3512 72.3688 64.2419 90.796 46.046 89.8739C38.6687 89.4999 29.2637 87.2174 27.3763 75.4518C25.9958 66.8547 29.4415 65.1601 30.2323 62.3037C25.7374 57.5295 20.6716 53.2695 15.8896 48.8061Z" stroke="black" stroke-width="3.86817" stroke-miterlimit="1.5" stroke-linecap="round" stroke-linejoin="round"/>
<path d="M67.5882 32.824C69.3693 37.2559 70.921 41.7871 72.2366 46.3975" stroke="black" stroke-width="3.86817" stroke-miterlimit="1.5" stroke-linecap="round" stroke-linejoin="round"/>
<path d="M30.1758 62.3073C33.6757 65.2197 37.5123 67.6904 41.0132 70.6122" stroke="black" stroke-width="3.86817" stroke-miterlimit="1.5" stroke-linecap="round" stroke-linejoin="round"/>
<path d="M84.1098 94.9661C79.8358 90.1697 76.4177 84.2828 72.5336 79.1007" stroke="black" stroke-width="3.86817" stroke-miterlimit="1.5" stroke-linecap="round" stroke-linejoin="round"/>
<path d="M59.3461 15.8879C59.8077 20.017 58.3013 24.0526 56.5475 27.6453C52.0935 36.766 43.0077 45.4741 33.1257 47.2249" stroke="black" stroke-width="3.86817" stroke-miterlimit="1.5" stroke-linecap="round" stroke-linejoin="round"/>
</svg>
