<svg width="81" height="194" viewBox="0 0 81 194" fill="none" xmlns="http://www.w3.org/2000/svg">
<path d="M52.5877 21.5C52.5877 15.1667 53.0877 2.59999 55.0877 2.99999C57.5877 3.49999 52.5877 21.5 55.0877 21.5C55.7544 15.5 57.3877 3.6 58.5877 4C60.0877 4.5 55.5877 25 57.0877 25.5C58.5877 26 61.0877 3 61.0877 5.5C61.0877 8 61.5877 25.5 63.5877 23.5C65.5877 21.5 65.5877 1.5 66.0877 1.5M45.5877 98.6602C45.5877 92.5928 45.9581 80.5538 47.4396 80.937C49.2915 81.416 45.5877 98.6602 47.4396 98.6602C47.9334 92.9122 49.1433 81.5118 50.0322 81.895C51.1433 82.374 47.81 102.013 48.9211 102.492C50.0322 102.971 51.884 80.937 51.884 83.332C51.884 85.7271 52.2544 102.492 53.7359 100.576C55.2174 98.6602 55.2174 79.5 55.5877 79.5M79.0377 46.3036C79.4635 52.8849 79.8648 65.9722 78.0638 65.6713C75.8126 65.2952 79.0377 46.3036 76.8201 46.4471C76.6321 52.7202 75.9833 65.1798 74.892 64.833C73.5278 64.3995 76.1413 42.8388 74.7771 42.4053C73.413 41.9718 72.7416 66.0156 72.5735 63.4178C72.4055 60.8199 70.7855 42.6635 69.1459 44.8566C67.5062 47.0497 68.8508 67.8326 68.4073 67.8613M11.8322 87.665C12.258 94.2462 12.6593 107.334 10.8583 107.033C8.60711 106.657 11.8322 87.665 9.61459 87.8084C9.4266 94.0816 8.77779 106.541 7.68646 106.194C6.32229 105.761 8.93578 84.2001 7.57161 83.7666C6.20745 83.3331 5.5361 107.377 5.36803 104.779C5.19996 102.181 3.57996 84.0249 1.94034 86.2179C0.300732 88.411 1.64529 109.194 1.20177 109.223M27.1601 136.194C27.5859 142.776 27.9872 155.863 26.1862 155.562C23.935 155.186 27.1601 136.194 24.9425 136.338C24.7545 142.611 24.1057 155.07 23.0144 154.724C21.6502 154.29 24.2637 132.729 22.8995 132.296C21.5354 131.863 20.864 155.906 20.696 153.308C20.5279 150.711 18.9079 132.554 17.2683 134.747C15.6287 136.94 16.9732 157.723 16.5297 157.752M68.8322 117.665C69.258 124.246 69.6593 137.334 67.8583 137.033C65.6071 136.657 68.8322 117.665 66.6146 117.808C66.4266 124.082 65.7778 136.541 64.6865 136.194C63.3223 135.761 65.9358 114.2 64.5716 113.767C63.2075 113.333 62.5361 137.377 62.368 134.779C62.2 132.181 60.58 114.025 58.9403 116.218C57.3007 118.411 58.6453 139.194 58.2018 139.223M66.5667 171.256C65.9532 178.403 64.14 192.534 61.7955 191.878C58.865 191.058 66.5667 171.256 63.5877 171C62.2121 177.703 59.113 190.966 57.7218 190.392C55.9829 189.674 63.331 166.999 61.592 166.281C59.8531 165.563 54.646 191.265 54.8881 188.443C55.1303 185.622 56.2298 165.821 53.6529 167.873C51.0759 169.926 49.1384 192.497 48.5426 192.446M27.1601 72.3019C26.9789 64.8571 27.0635 50.0742 28.8522 50.5011C31.0881 51.0348 27.1601 72.3019 29.3817 72.2478C29.8024 65.1804 30.9132 51.1567 31.991 51.6009C33.3383 52.1562 29.9262 76.3512 31.2734 76.9065C32.6207 77.4618 34.184 50.3713 34.2555 53.3101C34.3271 56.2488 35.2722 76.8092 36.9922 74.4149C38.7122 72.0206 38.1399 48.5107 38.5842 48.4999" stroke="#332623" stroke-width="1.5"/>
</svg>
