<svg width="178" height="180" viewBox="0 0 178 180" fill="none" xmlns="http://www.w3.org/2000/svg">
<path d="M129.342 80.2394C117.361 79.3685 103.653 81.9452 92.6507 88.7442C89.2783 90.8283 85.3369 92.717 82.8241 95.7762C78.8955 92.8747 74.5905 88.3955 69.708 86.8967C59.5091 83.7652 47.7293 85.9657 38.1667 88.8896C35.4685 107.757 33.9698 126.759 31.341 145.639C45.0468 141.613 58.9087 137.388 71.1745 141.517C77.1664 143.535 82.4533 149.093 87.7818 154.651C102.729 140.138 127.028 126.905 146.707 135.564C139.59 117.687 135.066 98.6039 129.342 80.2394Z" stroke="black" stroke-width="1.93409" stroke-miterlimit="1.5" stroke-linecap="round" stroke-linejoin="round"/>
<path d="M82.9708 95.6809C84.9569 110.198 85.8544 124.97 87.2157 139.559" stroke="black" stroke-width="1.93409" stroke-miterlimit="1.5" stroke-linecap="round" stroke-linejoin="round"/>
<path d="M33.6645 153.226C37.4649 150.925 42.525 150.031 46.8435 149.233C57.3523 147.292 67.2749 147.372 76.6048 153.069" stroke="black" stroke-width="1.93409" stroke-miterlimit="1.5" stroke-linecap="round" stroke-linejoin="round"/>
<path d="M97.676 153.457C122.208 135.965 141.711 142.255 145.747 143.202" stroke="black" stroke-width="1.93409" stroke-miterlimit="1.5" stroke-linecap="round" stroke-linejoin="round"/>
<path d="M146.788 153.229C141.512 151.21 122.434 148.049 104.866 156.779C101.421 158.491 97.0176 159.794 94.1032 162.317C91.9275 164.201 90.6564 164.868 88.5192 165.087C85.4302 165.404 83.3991 162.092 81.0122 160.68C79.059 159.525 76.3622 159.186 74.1865 158.617C63.4229 155.801 52.9271 155.74 41.9961 157.547C38.8069 158.075 36.1151 158.842 32.5408 160.329" stroke="black" stroke-width="1.93409" stroke-miterlimit="1.5" stroke-linecap="round" stroke-linejoin="round"/>
<path d="M72.5538 43.0737C61.8053 30.7639 35.4923 45.6417 48.4631 62.9103C53.6606 69.8294 64.8721 69.2891 71.6377 63.7422C77.2897 59.1104 79.4375 48.2784 73.2946 43.1714" stroke="black" stroke-width="1.93409" stroke-miterlimit="1.5" stroke-linecap="round" stroke-linejoin="round"/>
<path d="M76.9747 52.5695C80.8768 50.3668 87.1936 50.3632 90.959 52.5688" stroke="black" stroke-width="1.93409" stroke-miterlimit="1.5" stroke-linecap="round" stroke-linejoin="round"/>
<path d="M105.126 41.2458C95.4616 40.9514 87.4972 51.5743 91.8687 60.8907C94.3351 66.1475 101.355 68.4891 106.718 68.6815C114.298 68.952 122.748 60.508 121.236 52.5819C120.122 46.7414 113.205 41.41 107.365 40.9702" stroke="black" stroke-width="1.93409" stroke-miterlimit="1.5" stroke-linecap="round" stroke-linejoin="round"/>
<path d="M70.2793 23.6119C69.4791 24.974 68.5508 26.2233 68.2252 27.8075C67.9339 29.2347 68.928 29.6239 69.6251 28.3537C71.2984 25.3046 71.5475 14.7367 65.9385 15.7813C62.1925 16.4786 59.306 21.1271 57.2605 23.9627C51.2529 32.286 43.5877 40.8291 39.4637 50.262H45.3905" stroke="black" stroke-width="1.93409" stroke-miterlimit="1.5" stroke-linecap="round" stroke-linejoin="round"/>
<path d="M103.484 29.6506C103.369 29.1153 103.445 28.5142 103.481 27.9717C103.711 24.5646 107.844 31.577 104.525 30.9665C102.764 30.641 102.608 27.1506 102.529 25.8739C102.251 21.3817 105.093 12.4378 111.221 15.8283C114.164 17.4566 115.407 22.5536 116.618 25.4275C120.457 34.5414 124.609 43.9345 126.743 53.6467H121.371" stroke="black" stroke-width="1.93409" stroke-miterlimit="1.5" stroke-linecap="round" stroke-linejoin="round"/>
</svg>
