<svg width="111" height="111" viewBox="0 0 111 111" fill="none" xmlns="http://www.w3.org/2000/svg">
<path d="M47.0501 16.1542C47.3434 22.4759 46.9497 28.9941 47.5593 35.2821" stroke="black" stroke-width="2.76298" stroke-miterlimit="1.5" stroke-linecap="round" stroke-linejoin="round"/>
<path d="M29.9299 41.7211C33.1561 41.49 37.1591 40.2093 40.3701 40.572" stroke="black" stroke-width="2.76298" stroke-miterlimit="1.5" stroke-linecap="round" stroke-linejoin="round"/>
<path d="M52.9291 39.3455C56.7792 39.8059 60.6435 39.1944 64.5096 39.6362" stroke="black" stroke-width="2.76298" stroke-miterlimit="1.5" stroke-linecap="round" stroke-linejoin="round"/>
<path d="M47.3032 45.837C47.1725 50.6114 47.1903 55.3867 47.1885 60.162" stroke="black" stroke-width="2.76298" stroke-miterlimit="1.5" stroke-linecap="round" stroke-linejoin="round"/>
<path d="M38.7265 75.2185C36.5695 75.2585 35.6967 78.6206 38.171 79.0499C39.2855 79.2436 41.0568 77.4946 40.1085 76.4769" stroke="black" stroke-width="2.76298" stroke-miterlimit="1.5" stroke-linecap="round" stroke-linejoin="round"/>
<path d="M61.5287 60.9014C61.1857 64.6556 61.4843 68.3803 61.5589 72.1389" stroke="black" stroke-width="2.76298" stroke-miterlimit="1.5" stroke-linecap="round" stroke-linejoin="round"/>
<path d="M53.2001 77.6501C54.4514 77.4927 55.7455 77.2617 57.0102 77.2714" stroke="black" stroke-width="2.76298" stroke-miterlimit="1.5" stroke-linecap="round" stroke-linejoin="round"/>
<path d="M66.6072 76.8795C68.2869 76.9346 69.9222 76.7293 71.5967 76.6404" stroke="black" stroke-width="2.76298" stroke-miterlimit="1.5" stroke-linecap="round" stroke-linejoin="round"/>
<path d="M62.1186 82.1596C61.9319 86.239 61.9737 90.3264 61.971 94.4085" stroke="black" stroke-width="2.76298" stroke-miterlimit="1.5" stroke-linecap="round" stroke-linejoin="round"/>
<path d="M74.9239 43.6808C72.1199 44.3536 71.6089 48.1655 74.9684 48.2286C76.1344 48.2508 78.5972 45.9418 76.849 45.1544" stroke="black" stroke-width="2.76298" stroke-miterlimit="1.5" stroke-linecap="round" stroke-linejoin="round"/>
<path d="M76.8688 26.8362C72.537 25.3582 67.0516 31.807 72.0864 34.3382C77.5051 37.0623 83.9397 30.3361 78.225 26.6949" stroke="black" stroke-width="2.76298" stroke-miterlimit="1.5" stroke-linecap="round" stroke-linejoin="round"/>
</svg>
