<svg width="153" height="153" viewBox="0 0 153 153" fill="none" xmlns="http://www.w3.org/2000/svg">
<path d="M35.307 83.2458C35.4966 74.0805 34.8066 73.2096 34.9765 64.0441C47.3843 63.8461 59.7703 63.369 72.1944 63.5927C77.3701 63.6859 82.7445 64.5156 87.9079 64.2625C88.0481 64.2558 87.8456 54.6909 88.0651 51.8368C100.677 59.3442 113.5 66.5986 125.742 74.7285C114.458 82.4982 100.479 90.3983 88.2206 96.9432C87.4438 94.1856 87.5728 86.6101 87.6394 83.6896C83.3306 83.0659 79.1202 83.4254 74.7744 83.3081C62.5265 82.9785 47.543 82.7083 35.307 83.2458Z" stroke="black" stroke-width="2.76298" stroke-miterlimit="1.5" stroke-linecap="round" stroke-linejoin="round"/>
<path d="M117.762 69.6128C114.155 75.2108 110.222 81.4941 106.317 86.8873" stroke="black" stroke-width="2.76298" stroke-miterlimit="1.5" stroke-linecap="round" stroke-linejoin="round"/>
<path d="M110.299 65.0052C104.546 74.7301 98.1374 85.7184 91.7469 95.0454" stroke="black" stroke-width="2.76298" stroke-miterlimit="1.5" stroke-linecap="round" stroke-linejoin="round"/>
<path d="M102.95 60.6627C98.2132 68.7616 92.6178 77.4918 87.6452 85.4497" stroke="black" stroke-width="2.76298" stroke-miterlimit="1.5" stroke-linecap="round" stroke-linejoin="round"/>
<path d="M87.9166 64.2476C84.9525 70.1692 81.1336 77.3358 78.3067 83.3175" stroke="black" stroke-width="2.76298" stroke-miterlimit="1.5" stroke-linecap="round" stroke-linejoin="round"/>
<path d="M77.41 63.8855C73.5143 69.8633 70.2319 76.9132 66.7039 83.127" stroke="black" stroke-width="2.76298" stroke-miterlimit="1.5" stroke-linecap="round" stroke-linejoin="round"/>
<path d="M66.9794 63.5458C62.9404 69.3949 59.481 76.8934 55.7121 82.9472" stroke="black" stroke-width="2.76298" stroke-miterlimit="1.5" stroke-linecap="round" stroke-linejoin="round"/>
<path d="M57.1456 63.6207C53.772 69.763 50.1078 76.7747 46.8082 82.9601" stroke="black" stroke-width="2.76298" stroke-miterlimit="1.5" stroke-linecap="round" stroke-linejoin="round"/>
<path d="M47.5199 63.7889C43.7722 69.767 40.2445 76.7252 37.3022 83.1581" stroke="black" stroke-width="2.76298" stroke-miterlimit="1.5" stroke-linecap="round" stroke-linejoin="round"/>
</svg>
