<svg width="65" height="75" viewBox="0 0 65 75" fill="none" xmlns="http://www.w3.org/2000/svg">
<path fill-rule="evenodd" clip-rule="evenodd" d="M29.2386 69.0016C30.3177 58.1209 26.1905 46.9061 15.9298 39.5951C11.9563 36.7634 7.10291 35.4943 2.31439 34.3866C22.0318 35.1494 30.1686 16.9346 33.9178 2.655C32.0601 15.5676 38.5542 30.1085 53.7383 32.4704C37.9649 39.5273 31.7039 54.0647 29.2386 69.0016Z" fill="#BFD086" stroke="black" stroke-width="2.76298" stroke-miterlimit="1.5" stroke-linecap="round" stroke-linejoin="round"/>
<path fill-rule="evenodd" clip-rule="evenodd" d="M52.851 73.4354C53.325 68.6313 51.5396 63.6825 47.0902 60.4603C45.3671 59.2123 43.2614 58.6546 41.1837 58.1681C49.7409 58.4945 53.2819 50.449 54.9166 44.143C54.1035 49.8445 56.9145 56.2604 63.5033 57.2952C56.6538 60.4188 53.9288 66.8399 52.851 73.4354Z" fill="#BFD086" stroke="black" stroke-width="2.76298" stroke-miterlimit="1.5" stroke-linecap="round" stroke-linejoin="round"/>
</svg>
